<svg width="180" height="180" viewBox="0 0 180 180" fill="none" xmlns="http://www.w3.org/2000/svg">
<rect width="180" height="180" rx="35" fill="#292929"/>
<path d="M91.2139 56.2707C95.1547 50.9328 99.3632 45.797 103.821 40.8821C108.444 36.159 113.61 31.9984 119.21 28.4868L117.528 26.5742C118.13 27.6367 117.421 29.4075 117.067 30.4346C116.5 32.2054 115.756 33.7105 115.048 35.322C113.596 38.651 112.168 41.9918 110.763 45.3445C107.859 52.4274 104.919 59.3868 102.032 66.4345C96.3306 80.2822 90.6647 94.1346 85.0328 107.995C81.7403 116.07 78.1089 124.091 75.4539 132.396L78.7464 137.053C81.403 127.255 84.0178 117.445 86.5908 107.623C86.5908 107.286 85.76 106.259 85.7058 106.382C82.2354 115.025 78.8175 123.696 75.4539 132.396C75.1707 133.105 76.4797 134.858 76.817 135.371C76.9237 135.531 78.4988 137.567 78.587 137.141C82.1286 130.218 84.7496 122.816 87.6723 115.609L96.7561 93.084C102.824 78.0325 108.838 62.9579 114.8 47.859C116.394 43.8393 118.075 39.802 119.405 35.6938C119.938 34.1886 120.127 32.5823 119.955 30.9942C119.784 29.4061 119.256 27.8772 118.413 26.5212C118.306 26.344 117.333 24.7503 116.995 25.0336C111.469 28.942 106.408 33.469 101.908 38.5271C97.2946 43.5119 93.4884 49.188 90.6291 55.3501C90.6291 55.5265 91.1598 56.2877 91.2139 56.2351V56.2707Z" fill="white"/>
<path d="M80.8718 95.3505C91.6034 90.0389 95.4281 77.644 93.8344 66.4513C93.8344 65.9918 91.7271 62.574 91.4084 62.9995C86.6801 68.9316 83.3334 76.3691 80.3936 83.327C77.3301 90.5696 74.7277 98.0257 72.3542 105.516C69.9808 113.006 67.875 120.779 65.5541 128.393C63.2348 136.009 60.7206 143.463 55.5668 149.643L56.1346 149.873C54.558 148.67 56.7365 150.687 56.523 150.901L56.1346 149.536C55.9335 148.64 55.8205 147.727 55.7973 146.81C55.7137 144.741 55.8979 142.67 56.3466 140.647C57.2378 136.725 58.8856 133.013 61.1987 129.722C65.7491 123.188 72.2304 118.301 78.7118 113.784C90.6286 105.516 103.342 98.2377 114.286 88.6402C120.36 83.327 126.328 77.3949 128.984 69.6386C129.213 68.9842 126.842 65.4952 126.487 65.8495C123.654 68.5587 121.352 71.5696 118.784 74.5093C116.149 77.4955 113.316 80.2991 110.302 82.9031C104.187 88.0352 97.7459 92.7682 91.0185 97.068C84.2184 101.566 77.2945 105.923 70.7606 110.739C63.8553 115.856 57.3739 121.913 54.0087 129.987C50.645 138.062 51.052 149.272 58.7371 155.168C58.8036 155.252 58.8902 155.315 58.9908 155.354C59.0914 155.391 59.1981 155.4 59.3033 155.38C64.2081 149.536 66.7765 142.312 68.972 135.122C71.2743 127.508 73.3816 119.842 75.6653 112.209C77.9506 104.577 80.2869 96.856 83.174 89.3658C84.6439 85.5055 86.2375 81.6807 87.9906 77.9442C89.7436 74.2076 91.9221 70.454 93.7989 66.6819L91.3728 63.1403C94.6839 74.6501 88.9994 86.7448 80.3581 94.2891C80.2513 94.3943 80.748 95.1741 80.8718 95.1215V95.3505Z" fill="white"/>
</svg>
