<svg xmlns="http://www.w3.org/2000/svg" fill="#121212" viewBox="0 0 138.61 76.21"><g><g><path fill="#fafafa" d="M31.14,13.14A21,21,0,0,1,36.22,7L35.07,5.11a79,79,0,0,0-3.75,8.47c-1.27,3-2.48,6.11-3.69,9.17-2.42,6.16-4.83,12.33-7.28,18.48-.19.46.66,1.61.88,1.93.08.12,1.09,1.43,1.21,1.22a48.5,48.5,0,0,0,5.17-17.8c.24-2.74.66-5.86-.72-8.37-.53-.94-1.36-2.4-2.55-2.61-1.36-.25-2.5,1.22-3.28,2.09C17.2,22,14.53,27.18,12.29,32.47c-2.52,5.94-4.7,12-6.9,18.11C2.86,57.54-.53,65,.07,72.52c0,.61,1.31,3.42,2.14,3.23,5.17-1.17,8.5-5.69,11.52-9.69a60.37,60.37,0,0,0,4.8-7.26c.74-1.32,1.47-2.66,2.21-4s1.32-3,2.07-4.47c.13-.24-.59-1-.61-1a12.28,12.28,0,0,1-1.31,1.77,12.13,12.13,0,0,0-1.27,1.5C18.81,53.8,18,54.93,17.05,56c-1.82,2.24-3.56,4.52-5.34,6.79C8.65,66.72,5.21,71.24.12,72.4l2.15,3.23c-.49-6,1.67-11.79,3.65-17.39Q9,49.58,12.27,41a83.21,83.21,0,0,1,6.88-14.68A34.87,34.87,0,0,1,24,20.1a4.42,4.42,0,0,1,1.42-1c.46-.18.64,0,1.11,0l-1-1.45.05.46c-.11,1.44,0,2.91-.09,4.35A49.67,49.67,0,0,1,20.4,41.12l2.09,3.14c2.32-6.16,4.68-12.31,7-18.47,1.16-3,2.32-6.1,3.44-9.16,1.16-3.22,2.43-6.43,3.29-9.74.1-.38-1.12-1.87-1.18-1.78a43,43,0,0,0-4.14,7.71c0,.08.21.33.21.32Z"/><path fill="#fafafa" d="M66.32,29.34A100.2,100.2,0,0,1,58,36.84a114.57,114.57,0,0,1-9.62,6.39c-6.44,4-13.23,7.48-18.28,13.26-2.67,3-5,6.86-3.23,10.95a17.51,17.51,0,0,0,3.7,5.27c1.16,1.18,2.59,2.88,4.39,2.86,3.72,0,4.41-6.43,5.09-9q2-7.26,4.3-14.43c1.73-5.29,3.68-10.51,5.78-15.67,1.1-2.72,2.27-5.43,3.48-8.11,1-2.13,1.86-4.46,3.87-5.82L55.76,20c-2,6.77-4.31,13.47-6.38,20.23s-4.19,13.6-6.27,20.41l2.12,3c2.91-15.19,10.15-29,15.66-43.3,1.56-4.05,3-8.16,4.12-12.34.14-.51-1.53-3.44-2.09-3.16A28.83,28.83,0,0,0,50.14,17.37c-1.3,2.6-2.64,5.73-2.74,8.68a3.73,3.73,0,0,0,.89,2.51c.54.61,1.42.8,1.78-.09.1-.25-.65-1-.68-1a.62.62,0,0,1-.71.37c-.43-.11-.2.15-.23-.35A4.18,4.18,0,0,1,49,26.11c.43-1.09.89-2.16,1.42-3.21A36.29,36.29,0,0,1,54.17,17,31.64,31.64,0,0,1,65,8.09l-2.1-3.15C58.79,19.83,51.33,33.47,46.45,48.08a96.37,96.37,0,0,0-3.34,12.53c-.12.63.68,1.64,1,2.13.11.15,1,1.32,1.1.88q3.12-10.24,6.2-20.5c2.08-6.87,4-13.79,6.09-20.65.13-.41-1.33-2.85-1.72-2.6a10.14,10.14,0,0,0-3.31,4.5c-.91,1.93-1.79,3.89-2.65,5.85Q47.08,36.53,44.67,43c-1.59,4.3-3.09,8.65-4.45,13-.67,2.16-1.29,4.35-1.89,6.53s-1,4.24-1.68,6.27c-.48,1.37-1.33,3.14-2.87,3.58-1.91.54-3.52-1.43-4.66-2.68-3-3.24.89-8.3,3.11-10.82,4.67-5.31,10.69-9.47,16.63-13.21A112,112,0,0,0,58.72,39a47.68,47.68,0,0,0,4.4-3.88A19.7,19.7,0,0,0,66.73,30c.06-.13-.35-.71-.41-.65Z"/><path fill="#fafafa" d="M69.44,32.65C74.8,25.38,79.24,17.38,84,9.7l-2.1-3.16c-3.87,17-7.61,34-11.41,51.06L67.23,72.2c-.15.64.7,1.72,1,2.2.11.16,1,1.37,1.14.91C73.31,59.73,81,45.52,88.59,31.51l-2.15-3.24A197.65,197.65,0,0,0,75.13,73c-.1.7.68,1.68,1.05,2.21.12.17,1,1.37,1.15.92A451.33,451.33,0,0,1,99.65,18.89q3.69-7.83,7.69-15.51c.39-.75-1.94-3.57-2.1-3.37a17.37,17.37,0,0,0-1.7,2.92c-.53,1-1.12,2-1.67,3-.15.27.75,1.58.9,1.45.77-.65,1.52-1.34,2.3-2a14,14,0,0,0,2.27-2L105.24,0A451.76,451.76,0,0,0,80.66,56.45Q77.73,64.67,75.13,73l2.2,3.13A197.73,197.73,0,0,1,88.64,31.39c.19-.48-.68-1.64-.91-2-.08-.12-1.11-1.48-1.23-1.25-7.67,14.08-15.37,28.37-19.27,44l2.19,3.11L80.81,24.22Q82.43,16.92,84,9.59c.15-.68-2-3.31-2.1-3.16C77.2,14.3,72.09,22.06,68,30.26c-.28.56,1.4,2.5,1.49,2.39Z"/><path fill="#fafafa" d="M116.14,19.52a111.83,111.83,0,0,1,7.12-8.69,47.41,47.41,0,0,1,8.69-7L131,2.75c.34.6-.06,1.6-.26,2.18-.32,1-.74,1.85-1.14,2.76q-1.23,2.82-2.42,5.66c-1.64,4-3.3,7.93-4.93,11.91q-4.83,11.73-9.6,23.47c-1.86,4.56-3.91,9.09-5.41,13.78l1.86,2.63q2.25-8.3,4.43-16.62c0-.19-.47-.77-.5-.7q-2.94,7.32-5.79,14.69c-.16.4.58,1.39.77,1.68.06.09.95,1.24,1,1,2-3.91,3.48-8.09,5.13-12.16l5.13-12.72q5.14-12.75,10.19-25.54c.9-2.27,1.85-4.55,2.6-6.87a6,6,0,0,0-.56-5.18c-.06-.1-.61-1-.8-.84a50.16,50.16,0,0,0-8.52,7.62A36.78,36.78,0,0,0,115.81,19c0,.1.3.53.33.5Z"/><path fill="#fafafa" d="M111.43,41.59c6.06-3,8.22-10,7.32-16.32,0-.26-1.19-2.19-1.37-1.95-2.67,3.35-4.56,7.55-6.22,11.48-1.73,4.09-3.2,8.3-4.54,12.53s-2.53,8.62-3.84,12.92-2.73,8.51-5.64,12l.32.13c-.89-.68.34.46.22.58l-.22-.77a8,8,0,0,1-.19-1.54,13.55,13.55,0,0,1,.31-3.48A17.46,17.46,0,0,1,100.32,61c2.57-3.69,6.23-6.45,9.89-9,6.73-4.67,13.91-8.78,20.09-14.2,3.43-3,6.8-6.35,8.3-10.73.13-.37-1.21-2.34-1.41-2.14-1.6,1.53-2.9,3.23-4.35,4.89a49.85,49.85,0,0,1-4.79,4.74,104.43,104.43,0,0,1-10.89,8c-3.84,2.54-7.75,5-11.44,7.72-3.9,2.89-7.56,6.31-9.46,10.87s-1.67,10.89,2.67,14.22a.33.33,0,0,0,.32.12c2.77-3.3,4.22-7.38,5.46-11.44,1.3-4.3,2.49-8.63,3.78-12.94s2.61-8.67,4.24-12.9c.83-2.18,1.73-4.34,2.72-6.45s2.22-4.23,3.28-6.36l-1.37-2c1.87,6.5-1.34,13.33-6.22,17.59-.06.06.22.5.29.47Z"/></g></g></svg>